<svg width="500" height="500" viewBox="0 0 500 500" fill="none" xmlns="http://www.w3.org/2000/svg">
<rect width="500" height="500" rx="80" fill="black"/>
<rect width="500" height="500" rx="80" fill="url(#paint0_radial_2044_2900)"/>
<g clip-path="url(#clip0_2044_2900)">
<rect width="49.5499" height="173.395" rx="20" transform="matrix(0.866018 0.500014 -0.499986 0.866033 197.307 119.179)" fill="white"/>
<g opacity="0.4">
<rect width="49.5498" height="173.395" rx="20" transform="matrix(0.866018 0.500013 -0.499986 0.866033 347.477 205.88)" fill="white"/>
</g>
<rect width="49.5472" height="49.539" rx="20" transform="matrix(0.866014 0.500019 -0.499981 0.866036 347.479 205.88)" fill="white"/>
<g opacity="0.4">
<rect width="49.5505" height="247.709" rx="20" transform="matrix(0.866019 0.500011 -0.499989 0.866032 290.97 130.35)" fill="white"/>
</g>
<rect width="49.5496" height="148.623" rx="20" transform="matrix(0.866017 0.500015 -0.499985 0.866034 290.971 130.35)" fill="white"/>
</g>
<defs>
<radialGradient id="paint0_radial_2044_2900" cx="0" cy="0" r="1" gradientUnits="userSpaceOnUse" gradientTransform="translate(0 500) rotate(-45) scale(707.107)">
<stop stop-color="#CA9FE0"/>
<stop offset="0.240385" stop-color="#2FBBE0" stop-opacity="0.7"/>
<stop offset="0.442308" stop-color="#2F71A8" stop-opacity="0.26701"/>
<stop offset="0.764423" stop-color="#5197AA" stop-opacity="0"/>
<stop offset="1" stop-color="#737373" stop-opacity="0"/>
</radialGradient>
<clipPath id="clip0_2044_2900">
<rect width="315" height="326" fill="white" transform="translate(93 87)"/>
</clipPath>
</defs>
</svg>
